<?xml version="1.0" encoding="iso-8859-1"?>
<!-- Generator: Adobe Illustrator 19.0.0, SVG Export Plug-In . SVG Version: 6.00 Build 0)  -->
<svg version="1.1" id="Layer_1" xmlns="http://www.w3.org/2000/svg" xmlns:xlink="http://www.w3.org/1999/xlink" x="0px" y="0px"
	 viewBox="0 0 512 512" style="enable-background:new 0 0 512 512;" xml:space="preserve">
<g>
	<g>
		<path d="M478.609,91.915V50.087C478.609,22.469,456.14,0,428.522,0H83.478C55.86,0,33.391,22.469,33.391,50.087v41.828
			C13.959,98.807,0,117.365,0,139.13v356.174C0,504.525,7.475,512,16.696,512h478.609c9.22,0,16.696-7.475,16.696-16.696V139.13
			C512,117.365,498.041,98.807,478.609,91.915z M222.609,122.435h66.783v33.391c0,18.412-14.979,33.391-33.391,33.391
			c-18.412,0-33.391-14.979-33.391-33.391V122.435z M89.044,478.609H33.391v-259.8c7.052,2.485,14.56,3.8,22.261,3.8
			c12.16,0,23.56-3.282,33.391-8.984V478.609z M89.044,155.826c0,18.412-14.979,33.391-33.391,33.391
			c-8.312,0-16.178-3.052-22.261-8.506V139.13c0-9.206,7.49-16.696,16.696-16.696h38.957V155.826z M122.435,155.826v-33.391h66.783
			v33.391c0,18.412-14.979,33.391-33.391,33.391C137.414,189.217,122.435,174.238,122.435,155.826z M194.504,255.605
			c18.412,0,33.391,14.979,33.391,33.391s-14.979,33.391-33.391,33.391c-18.412,0-33.391-14.979-33.391-33.391
			C161.113,270.584,176.092,255.605,194.504,255.605z M316.939,444.822c-18.412,0-33.391-14.979-33.391-33.391
			c0-18.412,14.979-33.391,33.391-33.391c18.412,0,33.391,14.979,33.391,33.391C350.33,429.843,335.351,444.822,316.939,444.822z
			 M345.718,278.935L189.892,434.761c-3.259,3.261-7.532,4.891-11.805,4.891c-4.273,0-8.546-1.629-11.805-4.891
			c-6.52-6.52-6.52-17.091,0-23.611l155.826-155.826c6.519-6.52,17.091-6.52,23.611,0
			C352.238,261.845,352.238,272.416,345.718,278.935z M389.565,155.826c0,18.412-14.979,33.391-33.391,33.391
			c-18.412,0-33.391-14.979-33.391-33.391v-33.391h66.783V155.826z M478.609,478.609h-55.652V213.624
			c9.831,5.702,21.231,8.984,33.391,8.984c7.701,0,15.209-1.315,22.261-3.8V478.609z M478.609,180.712
			c-6.083,5.454-13.949,8.506-22.261,8.506c-18.412,0-33.391-14.979-33.391-33.391v-33.391h38.956
			c9.206,0,16.696,7.49,16.696,16.696V180.712z"/>
	</g>
</g>
<g>
</g>
<g>
</g>
<g>
</g>
<g>
</g>
<g>
</g>
<g>
</g>
<g>
</g>
<g>
</g>
<g>
</g>
<g>
</g>
<g>
</g>
<g>
</g>
<g>
</g>
<g>
</g>
<g>
</g>
</svg>
